# Blender v2.93.4 OBJ File: 'untitled.blend'
# www.blender.org
mtllib wall.mtl
o Cube_Cube.001
v -0.283900 -3.734872 5.902802
v -0.283900 3.734872 5.902802
v -0.283900 -3.734872 -5.902802
v -0.283900 3.734872 -5.902802
v 0.283900 -3.734872 5.902802
v 0.283900 3.734872 5.902802
v 0.283900 -3.734872 -5.902802
v 0.283900 3.734872 -5.902802
vt 0.998748 0.000655
vt 0.998490 0.996959
vt 0.000620 0.999329
vt 0.000879 0.002436
vt 0.375000 0.250000
vt 0.625000 0.250000
vt 0.625000 0.500000
vt 0.375000 0.500000
vt 0.998828 0.002909
vt 0.998580 0.997074
vt 0.000896 0.998569
vt 0.000731 0.001614
vt 0.375000 0.750000
vt 0.625000 0.750000
vt 0.625000 1.000000
vt 0.375000 1.000000
vt 0.125000 0.500000
vt 0.125000 0.750000
vt 0.875000 0.500000
vt 0.875000 0.750000
vn -1.0000 0.0000 0.0000
vn 0.0000 0.0000 -1.0000
vn 1.0000 0.0000 0.0000
vn 0.0000 0.0000 1.0000
vn 0.0000 -1.0000 0.0000
vn 0.0000 1.0000 0.0000
usemtl Material.001
s off
f 1/1/1 2/2/1 4/3/1 3/4/1
f 3/5/2 4/6/2 8/7/2 7/8/2
f 7/9/3 8/10/3 6/11/3 5/12/3
f 5/13/4 6/14/4 2/15/4 1/16/4
f 3/17/5 7/8/5 5/13/5 1/18/5
f 8/7/6 4/19/6 2/20/6 6/14/6
